<svg xmlns="http://www.w3.org/2000/svg" xmlns:xlink="http://www.w3.org/1999/xlink" version="1.1" x="0px" y="0px" viewBox="0 0 64 80" width="32px" enable-background="new 0 0 64 64" xml:space="preserve"><g><path fill="#007aff" d="M57,11.7L52.3,7c-1.4-1.4-3.7-1.4-5.2,0l-38,38l-0.2,0.2l-3.1,13l13-3.1L57,16.9   C58.4,15.4,58.4,13.1,57,11.7z M11.2,45.8L44,13l7,7L18.2,52.8L11.2,45.8z M10.4,47.7l5.9,5.9l-7.8,1.9L10.4,47.7z M55.6,15.4   l-3.1,3.1l-7-7l3.1-3.1c0.6-0.6,1.7-0.6,2.3,0l4.7,4.7c0.3,0.3,0.5,0.7,0.5,1.2C56.1,14.7,55.9,15.1,55.6,15.4z"/></g></svg>