<svg xmlns="http://www.w3.org/2000/svg" xmlns:xlink="http://www.w3.org/1999/xlink" viewBox="0 0 100 125" width="48px" version="1.1" x="0px" y="0px"><title>delete</title><g stroke="none" stroke-width="1" fill="none" fill-rule="evenodd"><path d="M50,80 C33.458,80 20,66.542 20,50 C20,33.458 33.458,20 50,20 C66.542,20 80,33.458 80,50 C80,66.542 66.542,80 50,80 M50,17 C31.804,17 17,31.804 17,50 C17,68.196 31.804,83 50,83 C68.196,83 83,68.196 83,50 C83,31.804 68.196,17 50,17" fill="#ff3500"/><path d="M62.0205,37.9795 C61.4345,37.3935 60.4855,37.3935 59.8995,37.9795 L49.9995,47.8785 L40.1005,37.9795 C39.5145,37.3935 38.5655,37.3935 37.9795,37.9795 C37.3935,38.5645 37.3935,39.5155 37.9795,40.1005 L47.8785,50.0005 L37.9795,59.8995 C37.3935,60.4855 37.3935,61.4345 37.9795,62.0205 C38.2725,62.3135 38.6565,62.4595 39.0405,62.4595 C39.4235,62.4595 39.8075,62.3135 40.1005,62.0205 L49.9995,52.1215 L59.8995,62.0205 C60.1925,62.3135 60.5765,62.4595 60.9595,62.4595 C61.3435,62.4595 61.7275,62.3135 62.0205,62.0205 C62.6065,61.4345 62.6065,60.4855 62.0205,59.8995 L52.1215,50.0005 L62.0205,40.1005 C62.6065,39.5155 62.6065,38.5645 62.0205,37.9795" fill="#ff3500"/></g></svg>