<svg xmlns="http://www.w3.org/2000/svg" xmlns:xlink="http://www.w3.org/1999/xlink" version="1.1" x="0px" y="0px" viewBox="0 0 512 640" width="48px" fill="#38b000" style="enable-background:new 0 0 512 512;" xml:space="preserve"><g><path d="M227.3,303l-59-54l-9.5,10.3l63.9,58.5c1.3,1.2,3,1.8,4.7,1.8c1.8,0,3.6-0.7,5-2L353.1,197l-9.9-9.9L227.3,303z"/><path d="M256,79c-97.6,0-177,79.4-177,177s79.4,177,177,177s177-79.4,177-177S353.6,79,256,79z M256,419c-89.9,0-163-73.1-163-163   S166.1,93,256,93s163,73.1,163,163S345.9,419,256,419z"/></g></svg>