<svg xmlns="http://www.w3.org/2000/svg" version="1.1" viewBox="-5.0 -10.0 110.0 135.0" width="32px" fill="#ff3500">
 <path d="m37.719 78.969h0.03125c0.82812-0.019531 1.4883-0.69922 1.4688-1.5312l-0.71875-35.328c-0.019531-0.82812-0.67969-1.5195-1.5312-1.4688-0.82812 0.019531-1.4883 0.69922-1.4688 1.5312l0.71875 35.328c0.019531 0.82031 0.67969 1.4688 1.5 1.4688z"/>
 <path d="m62.25 78.969h0.03125c0.80859 0 1.4805-0.64844 1.5-1.4688l0.71875-35.328c0.019531-0.82812-0.64062-1.5117-1.4688-1.5312h-0.03125c-0.80859 0-1.4805 0.64844-1.5 1.4688l-0.71875 35.328c-0.019531 0.82812 0.64062 1.5117 1.4688 1.5312z"/>
 <path d="m50 78.969c0.82812 0 1.5-0.67188 1.5-1.5v-35.328c0-0.82812-0.67188-1.5-1.5-1.5s-1.5 0.67188-1.5 1.5v35.328c0 0.82812 0.67188 1.5 1.5 1.5z"/>
 <path d="m17.879 24.301v3.8086c0 2.3906 1.8711 4.3281 4.2305 4.4688l2.1289 52.148c0.12109 2.9492 2.5391 5.2695 5.5 5.2695h40.52c2.9609 0 5.3789-2.3203 5.5-5.2695l2.1289-52.148c2.3594-0.14062 4.2305-2.0781 4.2305-4.4688v-3.8086c0-2.4805-2.0117-4.5-4.5-4.5h-12.352v-4.3008c0-3.0312-2.4609-5.5-5.5-5.5h-19.539c-3.0391 0-5.5 2.4688-5.5 5.5v4.3008h-12.352c-2.4805 0-4.5 2.0195-4.5 4.5zm54.883 60.301c-0.058594 1.3516-1.1484 2.3984-2.5 2.3984h-40.523c-1.3516 0-2.4414-1.0508-2.5-2.3984l-2.1289-51.988h49.781zm-35.031-69.102c0-1.3789 1.1211-2.5 2.5-2.5h19.539c1.3789 0 2.5 1.1211 2.5 2.5v4.3008h-24.539zm-16.852 8.8008c0-0.82031 0.67188-1.5 1.5-1.5h55.238c0.82812 0 1.5 0.67969 1.5 1.5v3.8086c0 0.82031-0.67188 1.5-1.5 1.5h-55.238c-0.82812 0-1.5-0.67969-1.5-1.5z"/>
</svg>